# xmcd CD database file
#
# Track frame offsets:
#	150
#	58290
#	104212
#	167830
#	214800
#
# Disc length: 3635 seconds
#
# Revision: 0
# Processed by: cddbd v1.5.1PL2 Copyright (c) Steve Scherf et al.
# Submitted via: CDex 1.51
#
DISCID=4e0e3105
DTITLE=Masahiko Togashi Trio - Masahiko Togashi Trio Live at Koln
DYEAR=2002
DGENRE=Jazz
TTITLE0=Driving You
TTITLE1=Reminisce -'63
TTITLE2=Duo Dance
TTITLE3=Feelin' Spring
TTITLE4=Waltz Step
EXTD=YEAR: 2002
EXTT0=
EXTT1=
EXTT2=
EXTT3=
EXTT4=
PLAYORDER=
